<?xml version="1.0" standalone="no"?><!DOCTYPE svg PUBLIC "-//W3C//DTD SVG 1.1//EN" "http://www.w3.org/Graphics/SVG/1.1/DTD/svg11.dtd"><svg t="1563376384438" class="icon" viewBox="0 0 1024 1024" version="1.1" xmlns="http://www.w3.org/2000/svg" p-id="1859" width="128" height="128" xmlns:xlink="http://www.w3.org/1999/xlink"><defs><style type="text/css"></style></defs><path d="M949.768467 246.121279c1.411246-25.966924 13.830209-110.923925 25.684675-182.615215 1.975744-11.854465-1.975744-23.708931-10.443219-32.176406s-20.60419-12.136714-32.458655-9.878721C854.932745 35.845645 762.072767 50.804851 736.952591 51.933848 666.672547 17.499449 591.029768 0 512 0 229.750827 0 0 229.750827 0 512s229.750827 512 512 512 512-229.750827 512-512c0-94.271224-25.684675-186.002205-74.231533-265.878721zM512 950.615215C270.112459 950.615215 73.384785 753.887541 73.384785 512S270.112459 73.384785 512 73.384785c69.715546 0 136.326351 15.805954 198.13892 47.135612 10.725469 5.644983 22.015436 11.289967 184.590959-17.781698-24.555678 154.390298-19.475193 162.575524-11.854466 174.429989 44.595369 69.997795 68.022051 151.285557 68.022051 234.549063-0.282249 242.169791-197.009923 438.897464-438.897464 438.897464z m-84.957001-478.976847c0-12.418964-7.056229-23.426681-18.346196-28.789415L214.509372 353.375965c-15.805954-7.338479-34.434399-0.282249-41.772878 15.523704-7.338479 15.805954-0.282249 34.434399 15.523704 41.772878l131.528115 60.683572-138.019846 62.094818c-15.805954 7.056229-22.862183 25.684675-15.805953 41.490629 5.362734 11.572216 16.652701 18.628445 28.789415 18.628445 4.233738 0 8.749724-0.846748 12.983462-2.822492l200.961412-90.601984c11.007718-5.080485 18.346196-16.088203 18.346196-28.507167zM842.231533 533.450937l-138.019846-62.094818 131.528115-60.683572c15.805954-7.338479 22.579934-25.966924 15.523704-41.772878-7.338479-15.805954-25.966924-22.579934-41.772878-15.523704L615.303197 442.848953c-11.289967 5.080485-18.346196 16.370452-18.346196 28.789415 0 12.418964 7.338479 23.426681 18.628446 28.507167l200.961411 90.601984c4.233738 1.975744 8.467475 2.822492 12.983462 2.822492 11.854465 0 23.426681-6.77398 28.789415-18.628445 6.77398-15.805954-0.282249-34.434399-16.088202-41.490629z m-248.097024 77.054024h-164.269018c-17.499449 0-31.329658 14.112459-31.329659 31.329659 0 17.499449 14.112459 31.329658 31.329659 31.329658h164.269018c17.499449 0 31.329658-14.112459 31.329659-31.329658 0.282249-17.2172-13.830209-31.329658-31.329659-31.329659z" p-id="1860" fill="#333333"></path></svg>